HIERARCHY
ROOT hip
{
  OFFSET 0 0 0
  CHANNELS 6 Xposition Yposition Zposition Zrotation Xrotation Yrotation
  JOINT abdomen
  {
    OFFSET 0.382852 7.22954 -0.0131598
    CHANNELS 3 Zrotation Xrotation Yrotation
    JOINT chest
    {
      OFFSET 0 16.5317 -0.765563
      CHANNELS 3 Zrotation Xrotation Yrotation
      JOINT neck
      {
        OFFSET -1.54851e-005 36.467 -4.32767
        CHANNELS 3 Zrotation Xrotation Yrotation
        JOINT head
        {
          OFFSET 0 10.4509 2.78238
          CHANNELS 3 Zrotation Xrotation Yrotation
          End Site
          {
            OFFSET 0 13.6483 2.8643
          }
        }
      }
      JOINT lCollar
      {
        OFFSET 3.05824 30.965 -6.75914
        CHANNELS 3 Zrotation Xrotation Yrotation
        JOINT lShldr
        {
          OFFSET 15.0645 0.0677185 -0.441115
          CHANNELS 3 Zrotation Xrotation Yrotation
          JOINT lForeArm
          {
            OFFSET 29.6373 0.773632 0.573944
            CHANNELS 3 Zrotation Xrotation Yrotation
            JOINT lHand
            {
              OFFSET 27.1742 0.781666 2.1178
              CHANNELS 3 Zrotation Xrotation Yrotation
              End Site
              {
                OFFSET 8.97645 -0.320339 0.148499
              }
            }
          }
        }
      }
      JOINT rCollar
      {
        OFFSET -3.05827 30.965 -6.75913
        CHANNELS 3 Zrotation Xrotation Yrotation
        JOINT rShldr
        {
          OFFSET -15.0645 0.0677185 -0.441067
          CHANNELS 3 Zrotation Xrotation Yrotation
          JOINT rForeArm
          {
            OFFSET -29.6373 0.773644 0.574036
            CHANNELS 3 Zrotation Xrotation Yrotation
            JOINT rHand
            {
              OFFSET -27.1742 0.781676 2.11789
              CHANNELS 3 Zrotation Xrotation Yrotation
              End Site
              {
                OFFSET -8.97645 -0.320336 0.148525
              }
            }
          }
        }
      }
    }
  }
  JOINT lThigh
  {
    OFFSET 8.73786 0 0
    CHANNELS 3 Zrotation Xrotation Yrotation
    JOINT lShin
    {
      OFFSET -0.218648 -43.6387 -2.09098
      CHANNELS 3 Zrotation Xrotation Yrotation
      JOINT lFoot
      {
        OFFSET -0.7694 -43.3017 -5.75582
        CHANNELS 3 Zrotation Xrotation Yrotation
        JOINT lToe
        {
          OFFSET 2.4699 -8.89869 14.0045
          CHANNELS 3 Zrotation Xrotation Yrotation
          End Site
          {
            OFFSET -0.0327013 -0.0137976 4.5702
          }
        }
      }
    }
  }
  JOINT rThigh
  {
    OFFSET -8.73786 0 1.69277e-005
    CHANNELS 3 Zrotation Xrotation Yrotation
    JOINT rShin
    {
      OFFSET 0.218536 -43.6387 -2.09099
      CHANNELS 3 Zrotation Xrotation Yrotation
      JOINT rFoot
      {
        OFFSET 0.769259 -43.3017 -5.75565
        CHANNELS 3 Zrotation Xrotation Yrotation
        JOINT rToe
        {
          OFFSET -2.37053 -8.8846 14.0306
          CHANNELS 3 Zrotation Xrotation Yrotation
          End Site
          {
            OFFSET 0.0327196 0 4.57023
          }
        }
      }
    }
  }
}
MOTION
Frames:	14
Frame Time:	0.0333333
-8.67844e-005 95.8123 2.70641 3.05042 -1.65214e-006 -0.00017417 -3.05041 -1.26957e-005 3.83505e-007 -1.66827e-005 8.65133 2.38482e-006 6.90734e-006 0 -7.61847e-007 9.78815e-006 -8.65132 2.13158e-007 -9.3739 -0.124397 -1.74221 -70.0442 0.442092 -0.986221 1.05954 0.349069 -21.5943 -3.41509e-006 8.53773e-007 -1.59028e-015 9.3739 -0.124368 1.7422 76.5513 0.530482 -4.79279 -0.952837 0.333174 19.5181 -3.41509e-006 -4.85584e-006 -4.26887e-007 -4.11061 -3.19208 -0.564892 -0.627459 4.17107 0.0319494 1.57882 -2.84454 -0.855184 0.152831 -0.310055 19.9971 -3.72539 -17.2048 4.70159 4.61597 28.1131 -1.21906 -5.93019 -4.99648 4.42314 9.99423e-006 -7.95139e-016 -20 
-0.158665 96.1739 2.6139 3.03886 0.345445 1.24372 -3.05041 -9.33815e-006 -5.23084e-007 -0.00012062 8.65377 -1.23119e-006 1.03799e-005 -8.53774e-007 -1.7101e-006 -0.0177358 -8.65422 -0.25885 -9.37389 -0.124415 -1.74221 -70.0378 0.441627 -0.96833 1.05627 0.348634 -21.5311 3.41509e-006 4.26887e-007 4.26887e-006 9.3739 -0.124384 1.74221 76.4822 0.533331 -4.71695 -0.945413 0.331921 19.3735 -1.40873e-005 3.20165e-007 -1.28066e-006 -4.53407 0.84599 -0.576521 0.716011 -4.76268 0.0193829 0.666593 1.77832 -2.18856 0.152839 -0.310052 19.9971 -3.63935 -17.0063 4.83135 4.43206 27.1609 -1.13165 -5.88055 -3.95925 3.88985 1.31979e-005 2.56132e-006 -20 
-0.293626 96.5711 2.52632 3.01982 0.69056 2.48775 -3.05042 -8.05749e-006 2.83708e-008 -0.00042524 8.65545 -1.30316e-005 6.90314e-006 -2.56132e-006 -5.6847e-007 -0.0357823 -8.65721 -0.521153 -9.3739 -0.124417 -1.74221 -70.0312 0.44127 -0.949579 1.05299 0.348206 -21.4675 6.83019e-006 3.41509e-006 2.56132e-006 9.3739 -0.124386 1.74221 76.4123 0.536513 -4.64048 -0.937855 0.330618 19.2253 8.53773e-007 -3.36173e-006 7.95138e-016 -4.35778 0.403502 -0.583054 0.716023 -4.76268 0.0193831 0.44601 1.94273 -3.43707 0.152832 -0.310047 19.9971 -3.57031 -16.7479 4.9677 4.22714 26.0801 -1.03746 -5.77864 -2.80618 3.3512 9.8285e-006 -1.79292e-005 -20 
-0.415091 96.897 2.44157 3.00855 0.832727 3.18923 -3.05041 -1.09923e-005 6.42503e-007 -0.000913837 8.65639 -3.34257e-005 6.88563e-006 -2.56132e-006 -1.10687e-006 -0.0541444 -8.66032 -0.786824 -9.3739 -0.124417 -1.74221 -70.0244 0.441015 -0.929996 1.04971 0.347772 -21.4036 6.83019e-006 1.92099e-006 -8.53774e-007 9.3739 -0.124381 1.7422 76.3416 0.54005 -4.56338 -0.930064 0.329258 19.0735 1.70755e-006 1.97435e-006 4.26887e-007 -4.2343 0.176356 -0.586834 0.716001 -4.76268 0.0193831 0.29472 2.06484 -4.13318 0.152831 -0.310065 19.9971 -3.53484 -16.4385 5.11021 4.05765 25.1703 -0.962171 -5.7363 -1.83932 3.32283 8.77492e-006 -8.53774e-007 -20 
-0.533182 97.0449 2.35752 3.01114 0.765815 3.31811 -3.05042 -1.48877e-005 -9.33968e-007 -0.00158855 8.65663 -5.96698e-005 -1.06194e-005 -5.97641e-006 -1.6928e-006 -0.0727997 -8.66353 -1.0558 -9.3739 -0.124408 -1.74221 -70.0174 0.440854 -0.909628 1.04642 0.34732 -21.3395 8.53773e-007 4.69576e-006 5.97642e-006 9.3739 -0.124376 1.7422 76.2702 0.543877 -4.48569 -0.922132 0.327864 18.9183 -4.26887e-006 -5.60289e-006 -1.19528e-005 -4.15162 0.177412 -0.590327 0.716005 -4.76267 0.019382 0.206929 2.13584 -4.24566 0.152838 -0.310061 19.9971 -3.52923 -16.2361 5.2558 3.98551 24.7787 -0.930849 -5.83071 -1.37107 3.80347 1.3772e-005 -8.53773e-007 -20 
-0.658021 97.0611 2.27206 3.01824 0.632802 3.25332 -3.05043 -1.29133e-005 3.59843e-007 -0.00245133 8.65618 -9.37033e-005 -3.81447e-008 -1.70755e-006 -6.2058e-007 -0.0917986 -8.66687 -1.32799 -9.3739 -0.124403 -1.74221 -70.0103 0.440792 -0.888459 1.04308 0.346875 -21.275 -6.83019e-006 1.98502e-005 -0 9.3739 -0.124379 1.7422 76.1981 0.547997 -4.40744 -0.914041 0.326402 18.76 1.70755e-005 -6.72347e-006 2.98821e-006 -4.07787 0.253399 -0.594164 0.716012 -4.76268 0.0193828 0.135985 2.18689 -4.16025 0.15283 -0.310058 19.9971 -3.52985 -16.1745 5.40335 3.98618 24.7824 -0.931141 -6.01299 -1.28617 4.42058 1.15494e-005 -1.19528e-005 -20 
-0.79973 97.0642 2.18307 3.02787 0.455349 3.06536 -3.05043 -2.11309e-005 -5.9968e-007 -0.00347239 8.65509 -0.000134349 -1.02415e-005 1.70755e-006 -2.09837e-006 -0.111114 -8.67033 -1.60334 -9.37391 -0.124408 -1.74221 -70.0029 0.440829 -0.866554 1.03974 0.346414 -21.2102 7.68396e-006 6.4033e-007 -2.56132e-006 9.37389 -0.124385 1.7422 76.1253 0.552399 -4.32864 -0.90577 0.324899 18.5985 -9.8184e-006 -1.286e-005 -8.53774e-007 -4.00084 0.375114 -0.598896 0.716011 -4.76268 0.0193808 0.0661671 2.2293 -3.94748 0.152836 -0.310069 19.9971 -3.51973 -16.1093 5.55449 3.99431 24.8266 -0.934649 -6.22136 -1.23763 5.1376 2.86924e-006 -8.53773e-007 -20 
-0.96843 97.0555 2.08844 3.03827 0.255093 2.82477 -3.05043 -1.39138e-005 -4.43267e-007 -0.00466499 8.65338 -0.000182278 -5.00258e-009 0 -3.98747e-007 -0.13074 -8.67393 -1.88176 -9.3739 -0.124403 -1.74221 -69.9954 0.440959 -0.843936 1.03642 0.345943 -21.1451 -1.8783e-005 2.13443e-006 2.56132e-006 9.37389 -0.124377 1.7422 76.0518 0.557044 -4.2493 -0.897379 0.323333 18.4341 2.98821e-006 -2.66804e-007 -4.26887e-007 -3.91036 0.517936 -0.604914 0.716028 -4.76269 0.0193825 -0.0160809 2.26996 -3.67815 0.15283 -0.310043 19.9971 -3.49031 -16.0519 5.70833 4.00897 24.9063 -0.940987 -6.45382 -1.21697 5.88373 1.30085e-005 -1.79292e-005 -20 
-1.17424 97.0362 1.98604 3.0482 0.0537097 2.60207 -3.05042 -1.11658e-005 4.70514e-008 -0.00601112 8.65109 -0.000236168 3.49764e-006 -8.53774e-007 5.26626e-007 -0.150707 -8.67766 -2.16319 -9.3739 -0.124412 -1.74221 -69.9878 0.441162 -0.820634 1.03305 0.34549 -21.0797 -5.97642e-006 6.4033e-006 -4.26887e-006 9.37389 -0.124382 1.74221 75.9778 0.561932 -4.16948 -0.888851 0.321728 18.2669 1.06722e-005 -1.50478e-005 2.13443e-006 -3.79588 0.65696 -0.612567 0.716008 -4.76269 0.0193824 -0.124103 2.31587 -3.42306 0.15284 -0.310052 19.9971 -3.43275 -16.0101 5.86395 4.02876 25.0137 -0.949576 -6.70944 -1.22206 6.58741 1.00431e-005 -1.10991e-005 -20 
-1.42729 97.0078 1.87377 3.05708 -0.127057 2.46772 -3.05041 -1.12858e-005 4.2543e-007 -0.00751074 8.64823 -0.000294796 3.31754e-006 -8.53774e-007 -7.62581e-007 -0.170984 -8.68151 -2.44754 -9.37389 -0.124413 -1.74221 -69.98 0.441444 -0.796686 1.02966 0.345017 -21.014 -8.53773e-007 -7.47052e-006 5.12264e-006 9.3739 -0.124383 1.74221 75.9031 0.56702 -4.08917 -0.880167 0.320073 18.0971 2.98821e-006 1.06722e-007 -4.26887e-007 -3.64653 0.766777 -0.622056 0.716028 -4.76268 0.0193825 -0.271137 2.37458 -3.25304 0.152837 -0.310059 19.9971 -3.3382 -15.9949 6.0203 4.05268 25.1433 -0.959995 -6.98584 -1.24078 7.17809 2.39098e-005 -1.70755e-006 -20 
-1.7377 96.9716 1.74951 3.06479 -0.265494 2.49222 -3.05042 -8.69782e-006 -2.10737e-007 -0.00912761 8.64486 -0.000359511 -7.45718e-006 8.53774e-007 -1.22553e-006 -0.191584 -8.68552 -2.73475 -9.3739 -0.124408 -1.74221 -69.972 0.441818 -0.772117 1.02625 0.344517 -20.948 2.56132e-006 7.04363e-006 -4.26887e-006 9.3739 -0.124371 1.74221 75.8279 0.572326 -4.00841 -0.871379 0.318358 17.9247 -1.70755e-006 -1.35003e-005 -3.84198e-006 -3.45123 0.82113 -0.633249 0.716016 -4.76267 0.0193837 -0.470061 2.45439 -3.23908 0.152842 -0.310066 19.9971 -3.19758 -16.0127 6.17645 4.079 25.2856 -0.971517 -7.28219 -1.2696 7.58419 7.69914e-006 -2.56132e-006 -20 
-2.10404 96.9287 1.61635 3.07016 -0.363355 2.63563 -3.05043 -9.49823e-006 5.16691e-007 -0.0108905 8.64098 -0.000430203 3.30254e-006 -1.70755e-006 1.68577e-006 -0.212546 -8.68965 -3.02474 -9.37389 -0.124416 -1.74221 -69.9639 0.442244 -0.746955 1.02284 0.344043 -20.8817 7.68396e-006 3.4151e-006 -9.39151e-006 9.3739 -0.12438 1.74221 75.7522 0.577799 -3.92725 -0.862472 0.316596 17.7499 1.02453e-005 -3.25501e-006 -2.13443e-006 -3.21154 0.82345 -0.645613 0.716012 -4.76267 0.0193817 -0.716026 2.55137 -3.34163 0.152836 -0.310054 19.9971 -3.01134 -16.0637 6.33211 4.10665 25.4347 -0.983689 -7.60061 -1.30262 7.84631 6.5035e-006 -8.53774e-007 -20 
-2.51344 96.8806 1.47893 3.07305 -0.440896 2.81615 -3.05042 -7.25707e-006 7.40506e-007 -0.012765 8.63664 -0.000505539 6.54504e-006 -3.18055e-015 1.84324e-006 -0.233839 -8.69395 -3.31743 -9.37389 -0.124415 -1.74221 -69.9557 0.442745 -0.721239 1.01944 0.343543 -20.8152 -1.19528e-005 1.23797e-005 -0 9.37389 -0.124388 1.74221 75.676 0.583446 -3.84569 -0.85346 0.314768 17.573 -3.41509e-006 8.00413e-007 -8.53774e-007 -2.93995 0.799007 -0.658588 0.716019 -4.76269 0.0193826 -0.993095 2.65595 -3.479 0.152837 -0.310059 19.9971 -2.78976 -16.1372 6.48762 4.13514 25.588 -0.996296 -7.93986 -1.33388 8.04847 1.21709e-005 -1.02453e-005 -20 
-2.95886 96.8285 1.33742 3.07516 -0.504152 3.04126 -3.05042 -1.29133e-005 -1.90365e-007 -0.0147534 8.63185 -0.000584912 3.37674e-006 -9.39151e-006 -1.02303e-006 -0.255452 -8.69837 -3.61276 -9.3739 -0.124408 -1.74221 -69.9473 0.443315 -0.69498 1.01598 0.343055 -20.7484 4.26887e-006 -7.47052e-006 5.97641e-006 9.37389 -0.124383 1.7422 75.5993 0.589222 -3.76373 -0.844348 0.312916 17.3939 -5.54953e-006 3.20165e-007 -1.70755e-006 -2.64212 0.752941 -0.671562 0.716017 -4.76267 0.0193808 -1.29719 2.76945 -3.65887 0.152834 -0.310057 19.9971 -2.53871 -16.2237 6.64315 4.16352 25.7402 -1.00892 -8.29413 -1.35969 8.18446 1.7359e-005 -5.97642e-006 -20 
